<svg width="211" height="293" viewBox="0 0 211 293" fill="none" xmlns="http://www.w3.org/2000/svg">
<line x1="194.824" y1="291.532" x2="202.824" y2="288.532" stroke="#4B4BD1"/>
<line x1="2.56588" y1="14.7519" x2="6.56588" y2="7.75193" stroke="#4B4BD1"/>
<rect x="142" y="172" width="40" height="100" rx="5" fill="#313336"/>
<rect x="5.5" y="0.5" width="205" height="289" rx="12.5" fill="#4B4BD1" stroke="black"/>
<rect x="0.5" y="10.5" width="200" height="282" rx="9.5" fill="#7795F4" stroke="black"/>
<rect x="22" y="117" width="30" height="30" rx="5" fill="#313336"/>
<rect x="62" y="117" width="30" height="30" rx="5" fill="#313336"/>
<rect x="102" y="117" width="30" height="30" rx="5" fill="#313336"/>
<rect x="62" y="157" width="30" height="30" rx="5" fill="#313336"/>
<rect x="62" y="237" width="30" height="30" rx="5" fill="#313336"/>
<rect x="22" y="197" width="30" height="30" rx="5" fill="#313336"/>
<rect x="102" y="197" width="30" height="30" rx="5" fill="#313336"/>
<rect x="22" y="157" width="30" height="30" rx="5" fill="#313336"/>
<rect x="62" y="197" width="30" height="30" rx="5" fill="#313336"/>
<rect x="102" y="237" width="30" height="30" rx="5" fill="#313336"/>
<rect x="22" y="237" width="30" height="30" rx="5" fill="#313336"/>
<rect x="102" y="157" width="30" height="30" rx="5" fill="#313336"/>
<rect x="143" y="117" width="40" height="40" rx="5" fill="#313336"/>
<rect x="143" y="167" width="40" height="100" rx="5" fill="#313336"/>
<rect x="22" y="94" width="30" height="10" rx="5" fill="#313336"/>
<rect x="62" y="94" width="30" height="10" rx="5" fill="#313336"/>
<rect x="140" y="115" width="40" height="40" rx="5" fill="#F9F4F4"/>
<rect x="140" y="165" width="40" height="100" rx="5" fill="#F9F4F4"/>
<rect x="20" y="30" width="160" height="50" fill="#C9F8D6"/>
<rect x="20" y="93" width="30" height="10" rx="5" fill="#F9F4F4"/>
<rect x="60" y="93" width="30" height="10" rx="5" fill="#F9F4F4"/>
<rect x="20" y="115" width="30" height="30" rx="5" fill="#F9F4F4"/>
<rect x="60" y="115" width="30" height="30" rx="5" fill="#F9F4F4"/>
<rect x="100" y="115" width="30" height="30" rx="5" fill="#F9F4F4"/>
<rect x="60" y="155" width="30" height="30" rx="5" fill="#F9F4F4"/>
<rect x="100" y="155" width="30" height="30" rx="5" fill="#F9F4F4"/>
<rect x="60" y="235" width="30" height="30" rx="5" fill="#F9F4F4"/>
<rect x="20" y="195" width="30" height="30" rx="5" fill="#F9F4F4"/>
<rect x="100" y="195" width="30" height="30" rx="5" fill="#F9F4F4"/>
<rect x="20" y="155" width="30" height="30" rx="5" fill="#F9F4F4"/>
<rect x="60" y="195" width="30" height="30" rx="5" fill="#F9F4F4"/>
<rect x="100" y="235" width="30" height="30" rx="5" fill="#F9F4F4"/>
<rect x="20" y="235" width="30" height="30" rx="5" fill="#F9F4F4"/>
<path d="M28 61V47H40V49H42V55H40V57H32V61H28ZM32 55H38V49H32V55ZM46 61V59H50V49H46V47H58V49H54V59H58V61H46ZM60 61V47H64V49H66V51H68V49H70V47H74V61H70V53H68V57H66V53H64V61H60ZM86 57H88V59H90V61H78V59H76V55H78V53H76V49H78V47H84V49H86V53H84V55H86V57ZM80 53H82V49H80V53ZM84 57H82V55H80V59H84V57ZM90 55V57H88V55H90ZM92 61V47H104V49H106V55H104V57H96V61H92ZM96 55H102V49H96V55ZM108 61V47H122V49H112V53H120V55H112V59H122V61H108ZM126 61V47H130V59H138V61H126ZM142 61V59H140V49H142V47H152V49H154V59H152V61H142ZM144 59H150V49H144V59ZM156 61V47H166V49H168V51H170V57H168V59H166V61H156ZM160 59H164V57H166V51H164V49H160V59Z" fill="black"/>
<path d="M26 101V98H25V97H24V94H26V97H28V94H30V97H29V98H28V101H26ZM31 101V94H38V95H33V97H37V98H33V100H38V101H31ZM40 101V100H39V99H41V100H44V98H40V97H39V95H40V94H45V95H46V96H44V95H41V97H45V98H46V100H45V101H40Z" fill="black"/>
<path d="M68 101V94H70V95H71V96H72V97H73V94H75V101H73V99H72V98H71V97H70V101H68ZM77 101V100H76V95H77V94H82V95H83V100H82V101H77ZM78 100H81V95H78V100Z" fill="black"/>
<path d="M29.75 136.25V134.5H33.25V127.5H31.5V125.75H33.25V124H36.75V134.5H40.25V136.25H29.75Z" fill="black"/>
<path d="M110.75 136.25V134.5H109V132.75H112.5V134.5H117.75V131H112.5V129.25H114.25V127.5H116V125.75H110.75V124H121.25V125.75H119.5V127.5H117.75V129.25H119.5V131H121.25V134.5H119.5V136.25H110.75Z" fill="black"/>
<path d="M69 136.25V132.75H70.75V131H72.5V129.25H76V127.5H77.75V125.75H72.5V127.5H69V125.75H70.75V124H79.5V125.75H81.25V129.25H79.5V131H77.75V132.75H74.25V134.5H81.25V136.25H69Z" fill="black"/>
<path d="M31.5 256.25V252.75H35V256.25H31.5Z" fill="black"/>
<path d="M110.75 256.25V254.5H109V252.75H110.75V247.5H109V245.75H110.75V244H114.25V245.75H116V244H119.5V245.75H121.25V247.5H119.5V252.75H121.25V254.5H119.5V256.25H116V254.5H114.25V256.25H110.75ZM114.25 252.75H116V247.5H114.25V252.75Z" fill="black"/>
<path d="M72.5 256.25V254.5H70.75V252.75H69V247.5H70.75V245.75H72.5V244H77.75V245.75H79.5V247.5H81.25V252.75H79.5V254.5H77.75V256.25H72.5ZM74.25 254.5H77.75V247.5H76V245.75H72.5V252.75H74.25V254.5Z" fill="black"/>
<path d="M31.5 216.25V211H33.25V209.25H35V207.5H36.75V205.75H31.5V207.5H28V204H40.25V207.5H38.5V209.25H36.75V211H35V216.25H31.5Z" fill="black"/>
<path d="M110.75 216.25V214.5H116V212.75H117.75V211H110.75V209.25H109V205.75H110.75V204H119.5V205.75H121.25V212.75H119.5V214.5H117.75V216.25H110.75ZM112.5 209.25H117.75V205.75H112.5V209.25Z" fill="black"/>
<path d="M70.75 216.25V214.5H69V211H70.75V209.25H69V205.75H70.75V204H77.75V205.75H79.5V209.25H77.75V211H81.25V214.5H79.5V216.25H70.75ZM74.25 209.25H77.75V205.75H72.5V207.5H74.25V209.25ZM70.75 214.5H77.75V212.75H74.25V211H70.75V214.5Z" fill="black"/>
<path d="M35 176.25V172.75H28V169.25H29.75V167.5H31.5V165.75H33.25V164H38.5V171H40.25V172.75H38.5V176.25H35ZM31.5 171H35V167.5H33.25V169.25H31.5V171Z" fill="black"/>
<path d="M110.75 176.25V174.5H109V167.5H110.75V165.75H112.5V164H119.5V165.75H114.25V167.5H112.5V169.25H119.5V171H121.25V174.5H119.5V176.25H110.75ZM112.5 174.5H117.75V171H112.5V174.5Z" fill="black"/>
<path d="M70.75 176.25V174.5H69V172.75H72.5V174.5H77.75V169.25H69V164H79.5V165.75H72.5V167.5H79.5V169.25H81.25V174.5H79.5V176.25H70.75Z" fill="black"/>
<path d="M155.5 128.25H153.25V126H157.75V130.5H155.5V128.25ZM166.75 126V128.25H164.5V126H166.75ZM155.5 132.75H151V128.25H153.25V130.5H155.5V132.75ZM162.25 128.25H164.5V130.5H162.25V128.25ZM160 130.5H162.25V132.75H160V130.5ZM157.75 132.75H160V135H157.75V132.75ZM155.5 135H157.75V137.25H155.5V135ZM162.25 135H166.75V139.5H164.5V137.25H162.25V135ZM153.25 137.25H155.5V139.5H153.25V137.25ZM162.25 139.5H164.5V141.75H160V137.25H162.25V139.5ZM151 139.5H153.25V141.75H151V139.5Z" fill="black"/>
</svg>
